<?xml version="1.0"?>
<svg xmlns="http://www.w3.org/2000/svg" xmlns:xlink="http://www.w3.org/1999/xlink" xmlns:svgjs="http://svgjs.com/svgjs" version="1.1" width="512" height="512" x="0" y="0" viewBox="0 0 512 512" style="enable-background:new 0 0 512 512" xml:space="preserve" class=""><g>
<path xmlns="http://www.w3.org/2000/svg" style="" d="M384,140.8c-35.294,0-64-28.706-64-64s28.706-64,64-64s64,28.706,64,64S419.294,140.8,384,140.8z" fill="#c7936c" data-original="#ffe7e5" class=""/>
<path xmlns="http://www.w3.org/2000/svg" style="" d="M29.679,256l14.652-20.292c16.725-23.177,39.245-41.779,65.101-53.786l43.494-20.198l-27.639,39.185  c-8.977,12.723-16.546,28.305-22.511,46.31L99.866,256H29.679z" fill="#cfb528" data-original="#c5dfe2" class=""/>
<path xmlns="http://www.w3.org/2000/svg" style="" d="M346.573,499.2l-11.196-140.8h-43.511L322.116,192h123.767l26.522,145.92H404.48  c-7.057,0-12.8,5.743-12.8,12.8v58.88c0,7.057,5.743,12.8,12.8,12.8h23.049l-6.11,76.8H346.573z" fill="#784377" data-original="#919cb0" class=""/>
<path xmlns="http://www.w3.org/2000/svg" style="" d="M258.85,409.6l3.405-15.539c3.405-15.59,5.495-32.077,6.187-48.99l0.512-12.271h25.079l0.461,12.8  c0,3.063,1.024,5.982,2.884,8.209c2.432,2.918,6.016,4.591,9.822,4.591h28.186l2.005,25.327l-0.845,2.492  c-1.971,5.845-4.028,11.059-6.272,15.932l-3.422,7.45H258.85z" fill="#a58d45" data-original="#8cc0c5" class=""/>
<path xmlns="http://www.w3.org/2000/svg" style="" d="M233.122,464.691c8.977-12.723,16.546-28.305,22.511-46.31l2.901-8.781h70.195l-14.652,20.292  c-16.725,23.177-39.245,41.779-65.101,53.786l-43.494,20.198L233.122,464.691z" fill="#ab9129" data-original="#6fb0b6" class=""/>
<rect xmlns="http://www.w3.org/2000/svg" x="391.68" y="337.92" style="" width="107.52" height="84.48" fill="#9779ab" data-original="#bcb0ad" class=""/>
<path xmlns="http://www.w3.org/2000/svg" style="" d="M179.2,409.6v-76.8h89.796l-0.563,13.346c-0.811,18.79-3.294,36.847-7.364,53.675l-2.381,9.779H179.2  z" fill="#a58d45" data-original="#8cc0c5" class=""/>
<path xmlns="http://www.w3.org/2000/svg" style="" d="M179.2,409.6h80.111l-6.571,17.331c-13.278,35.046-33.724,60.126-56.115,68.804l-17.425,6.758V409.6z  " fill="#ab9129" data-original="#6fb0b6" class=""/>
<path xmlns="http://www.w3.org/2000/svg" style="" d="M99.089,256l6.571-17.331c13.278-35.046,33.724-60.126,56.115-68.804l17.425-6.758V256H99.089z" fill="#cfb528" data-original="#c5dfe2" class=""/>
<path xmlns="http://www.w3.org/2000/svg" style="" d="M99.712,409.6l-2.372-9.779c-4.079-16.819-6.562-34.876-7.364-53.675L89.404,332.8H179.2v76.8H99.712  z" fill="#a58d45" data-original="#8cc0c5" class=""/>
<g xmlns="http://www.w3.org/2000/svg">
	<path style="" d="M161.775,495.736c-22.391-8.678-42.846-33.758-56.115-68.804L99.089,409.6H179.2v92.894   L161.775,495.736z" fill="#ab9129" data-original="#6fb0b6" class=""/>
	<path style="" d="M109.423,483.678c-25.856-12.006-48.375-30.601-65.101-53.786L29.679,409.6h70.195l2.901,8.781   c5.956,17.997,13.534,33.587,22.511,46.31l27.639,39.185L109.423,483.678z" fill="#ab9129" data-original="#6fb0b6" class=""/>
</g>
<path xmlns="http://www.w3.org/2000/svg" style="" d="M89.404,332.8l0.563-13.346c0.811-18.79,3.294-36.847,7.364-53.675L99.712,256H179.2v76.8H89.404z" fill="#bda130" data-original="#a9d0d3" class=""/>
<path xmlns="http://www.w3.org/2000/svg" style="" d="M31.556,409.6l-3.43-7.441c-8.107-17.604-13.03-36.275-14.635-55.501L12.339,332.8h77.107  l0.512,12.271c0.691,16.913,2.773,33.399,6.187,48.99L99.55,409.6H31.556z" fill="#a58d45" data-original="#8cc0c5" class=""/>
<path xmlns="http://www.w3.org/2000/svg" style="" d="M179.2,256v-92.894l17.425,6.758c22.391,8.678,42.846,33.758,56.115,68.804L259.311,256H179.2z" fill="#cfb528" data-original="#c5dfe2" class=""/>
<g xmlns="http://www.w3.org/2000/svg">
	<path style="" d="M268.954,332.8l-0.512-12.271c-0.691-16.913-2.773-33.399-6.187-48.99L258.85,256h51.627   l-13.961,76.8H268.954z" fill="#bda130" data-original="#a9d0d3" class=""/>
	<path style="" d="M179.2,332.8V256h79.488l2.372,9.779c4.079,16.819,6.562,34.876,7.364,53.675l0.572,13.346H179.2z" fill="#bda130" data-original="#a9d0d3" class=""/>
	<path style="" d="M12.339,332.8l1.152-13.858c1.604-19.217,6.528-37.888,14.635-55.501l3.43-7.441H99.55   l-3.405,15.539c-3.405,15.59-5.495,32.077-6.187,48.99L89.446,332.8H12.339z" fill="#bda130" data-original="#a9d0d3" class=""/>
</g>
<path xmlns="http://www.w3.org/2000/svg" style="" d="M258.534,256l-2.901-8.781c-5.956-17.997-13.534-33.587-22.511-46.31l-27.639-39.185l43.494,20.198  c24.004,11.153,45.338,28.211,61.687,49.348l3.482,4.506L310.494,256H258.534z" fill="#cfb528" data-original="#c5dfe2" class=""/>
<g xmlns="http://www.w3.org/2000/svg">
	<path style="" d="M384,153.6c42.351,0,76.8-34.449,76.8-76.8S426.351,0,384,0s-76.8,34.449-76.8,76.8   S341.649,153.6,384,153.6z M384,25.6c28.279,0,51.2,22.921,51.2,51.2S412.279,128,384,128c-28.279,0-51.2-22.921-51.2-51.2   S355.721,25.6,384,25.6z" fill="#573a32" data-original="#573a32" class=""/>
	<path style="" d="M486.4,325.12h-3.302L460.39,200.226c-2.219-12.177-12.817-21.026-25.19-21.026H332.8   c-12.373,0-22.972,8.849-25.19,21.026l-1.203,6.63C273.946,174.037,229.009,153.6,179.2,153.6C80.23,153.6,0,233.83,0,332.8   S80.23,512,179.2,512c62.353,0,117.103-31.957,149.171-80.299l4.514,56.73C333.943,501.734,345.054,512,358.4,512h51.2   c13.355,0,24.465-10.266,25.523-23.569l4.233-53.231H486.4c14.14,0,25.6-11.46,25.6-25.6v-58.88   C512,336.58,500.54,325.12,486.4,325.12z M114.816,193.536c-9.719,13.773-17.903,30.626-24.209,49.664H54.699   C70.084,221.884,90.752,204.706,114.816,193.536z M39.748,268.8h43.895c-3.524,16.094-5.751,33.263-6.477,51.2H26.249   C27.759,301.841,32.452,284.621,39.748,268.8z M39.748,396.8c-7.296-15.821-11.989-33.041-13.5-51.2h50.918   c0.725,17.937,2.953,35.106,6.477,51.2H39.748z M54.699,422.4h35.908c6.298,19.038,14.49,35.891,24.209,49.664   C90.752,460.894,70.084,443.716,54.699,422.4z M166.4,483.806c-18.406-7.134-36.531-29.082-48.777-61.406H166.4V483.806z    M166.4,396.8h-56.627c-3.772-15.556-6.221-32.734-7.014-51.2H166.4V396.8z M166.4,320h-63.642   c0.794-18.466,3.243-35.644,7.014-51.2H166.4V320z M166.4,243.2h-48.777c12.245-32.316,30.37-54.263,48.777-61.406V243.2z    M300.544,239.104l-0.742,4.096h-32.009c-6.298-19.038-14.49-35.891-24.209-49.664   C266.069,203.972,285.525,219.708,300.544,239.104z M295.142,268.8l-9.31,51.2h-4.608c-0.725-17.937-2.953-35.106-6.477-51.2   H295.142z M192,181.794c18.406,7.134,36.531,29.082,48.777,61.406H192V181.794z M192,268.8h56.627   c3.772,15.556,6.221,32.734,7.014,51.2H192V268.8z M192,345.6h63.642c-0.794,18.466-3.243,35.644-7.014,51.2H192V345.6z    M192,483.806V422.4h48.777C228.531,454.716,210.406,476.664,192,483.806z M243.584,472.064   c9.719-13.773,17.903-30.626,24.209-49.664h35.908C288.316,443.716,267.648,460.894,243.584,472.064z M318.652,396.8h-43.895   c3.524-16.094,5.751-33.263,6.477-51.2h0.461c0,5.948,1.98,11.767,5.854,16.401c4.864,5.828,12.058,9.199,19.652,9.199h16.358   l0.87,10.923C322.731,387.123,320.845,392.038,318.652,396.8z M409.6,486.4h-51.2l-11.204-140.8H307.2l25.6-140.8h38.4v77.875   c0,7.074,5.726,12.8,12.8,12.8c7.074,0,12.8-5.726,12.8-12.8V204.8h38.4l21.871,120.32H404.48c-14.14,0-25.6,11.46-25.6,25.6v58.88   c0,14.14,11.46,25.6,25.6,25.6h9.19L409.6,486.4z M486.4,409.6h-81.92v-58.88h81.92V409.6z" fill="#573a32" data-original="#573a32" class=""/>
</g>
<g xmlns="http://www.w3.org/2000/svg">
</g>
<g xmlns="http://www.w3.org/2000/svg">
</g>
<g xmlns="http://www.w3.org/2000/svg">
</g>
<g xmlns="http://www.w3.org/2000/svg">
</g>
<g xmlns="http://www.w3.org/2000/svg">
</g>
<g xmlns="http://www.w3.org/2000/svg">
</g>
<g xmlns="http://www.w3.org/2000/svg">
</g>
<g xmlns="http://www.w3.org/2000/svg">
</g>
<g xmlns="http://www.w3.org/2000/svg">
</g>
<g xmlns="http://www.w3.org/2000/svg">
</g>
<g xmlns="http://www.w3.org/2000/svg">
</g>
<g xmlns="http://www.w3.org/2000/svg">
</g>
<g xmlns="http://www.w3.org/2000/svg">
</g>
<g xmlns="http://www.w3.org/2000/svg">
</g>
<g xmlns="http://www.w3.org/2000/svg">
</g>
</g></svg>
